<!DOCTYPE svg PUBLIC "-//W3C//DTD SVG 20010904//EN" "http://www.w3.org/TR/2001/REC-SVG-20010904/DTD/svg10.dtd">
<svg version="1.0" xmlns="http://www.w3.org/2000/svg" width="1138px" height="183px" viewBox="0 0 11380 1830" preserveAspectRatio="xMidYMid meet">
<g id="layer1" fill="#ffffff" stroke="none">
 <path d="M0 1580 l0 -250 99 0 c85 0 100 -2 106 -17 3 -10 83 -220 177 -468 94 -247 175 -458 180 -467 8 -16 26 -18 157 -18 107 0 151 4 159 13 5 6 90 224 187 484 l178 472 106 3 106 3 3 248 2 247 -135 0 -135 0 0 -110 0 -110 -465 0 -465 0 0 110 0 110 -130 0 -130 0 0 -250z m806 -538 l-91 -288 -87 275 c-48 152 -88 282 -88 289 0 9 42 12 178 12 l179 0 -91 -288z"/>
 <path d="M3305 1633 c-131 -8 -234 -54 -316 -140 -57 -60 -80 -96 -104 -163 -10 -30 -11 -41 -2 -48 13 -9 245 -82 264 -82 6 0 24 23 39 51 38 69 90 99 173 99 103 0 151 -38 151 -121 0 -32 -7 -55 -22 -74 -38 -49 -79 -59 -248 -65 l-155 -5 0 -115 0 -115 135 -7 c156 -9 213 -25 235 -68 46 -89 -13 -170 -123 -170 -72 0 -107 22 -138 87 -13 29 -30 53 -37 53 -32 0 -251 -77 -260 -91 -16 -25 34 -118 100 -189 39 -43 77 -71 130 -97 72 -36 81 -37 197 -41 226 -8 372 57 451 199 27 48 30 63 30 139 0 65 -5 95 -20 125 -24 49 -93 117 -135 135 l-30 13 48 22 c67 31 116 77 146 137 22 44 26 66 26 137 0 95 -22 158 -80 231 -84 106 -273 173 -455 163z"/>
 <path d="M1555 1598 c-3 -7 -4 -287 -3 -623 l3 -610 155 0 155 0 5 384 5 384 240 -384 240 -384 180 0 180 0 0 620 0 620 -160 0 -160 0 -3 -384 -2 -384 -243 384 -242 384 -173 3 c-132 2 -174 0 -177 -10z"/>
 <path d="M3865 1600 c-6 -9 487 -1202 507 -1228 15 -17 302 -17 315 0 22 29 504 1211 499 1224 -4 11 -37 14 -170 14 -193 0 -171 13 -231 -142 l-37 -98 -227 0 -227 0 -33 93 c-19 50 -40 104 -48 120 l-14 27 -164 0 c-97 0 -166 -4 -170 -10z m785 -508 c0 -5 -26 -80 -58 -168 -32 -87 -61 -165 -63 -173 -5 -13 -18 22 -108 267 l-30 82 129 0 c72 0 130 -4 130 -8z"/>
 <path d="M5275 1598 c-3 -7 -4 -287 -3 -623 l3 -610 155 0 155 0 5 374 5 374 230 -374 230 -374 185 0 185 0 0 620 0 620 -155 0 -155 0 -5 -378 -5 -378 -234 381 -234 380 -179 0 c-134 0 -180 -3 -183 -12z"/>
 <path d="M6655 1598 c-3 -7 -4 -287 -3 -623 l3 -610 155 0 155 0 3 228 2 227 225 0 225 0 2 -227 3 -228 155 0 155 0 0 620 0 620 -155 0 -155 0 -3 -252 -2 -253 -225 0 -225 0 -2 253 -3 252 -153 3 c-116 2 -154 0 -157 -10z"/>
 <path d="M7975 1598 c-3 -7 -4 -287 -3 -623 l3 -610 420 0 420 0 0 135 0 135 -267 3 -268 2 0 100 0 100 253 2 252 3 0 130 0 130 -252 3 -253 2 0 110 0 110 283 2 282 3 0 135 0 135 -433 3 c-341 2 -434 0 -437 -10z"/>
 <path d="M9015 1598 c-3 -7 -4 -287 -3 -623 l3 -610 290 -3 c262 -2 297 0 369 18 193 49 286 167 286 365 0 116 -22 183 -85 253 -86 96 -199 136 -417 148 l-128 7 -2 226 -3 226 -153 3 c-116 2 -154 0 -157 -10z m552 -738 c66 -29 92 -104 58 -169 -22 -44 -78 -61 -195 -61 l-100 0 0 131 0 132 98 -7 c58 -5 114 -15 139 -26z"/>
 <path d="M10115 1588 c-3 -7 -4 -285 -3 -618 l3 -605 155 0 155 0 3 217 2 218 103 0 c181 0 291 35 381 120 80 75 100 129 101 260 0 95 -3 111 -29 167 -32 70 -116 157 -185 192 -97 50 -176 61 -438 61 -186 0 -245 -3 -248 -12z m512 -283 c38 -16 63 -60 63 -112 0 -80 -53 -113 -180 -113 l-80 0 0 126 0 126 83 -7 c45 -4 96 -13 114 -20z"/>
 <path d="M11075 1588 c-3 -7 -4 -285 -3 -618 l3 -605 153 -3 152 -3 0 621 0 620 -150 0 c-111 0 -152 -3 -155 -12z"/>
 <path d="M5795 289 c-90 -8 -174 -51 -240 -120 -73 -76 -71 -91 15 -135 80 -42 103 -42 129 -5 66 92 235 93 303 1 12 -17 29 -30 39 -30 22 0 83 26 131 56 l39 25 -23 41 c-64 114 -228 183 -393 167z"/>
 </g>

</svg>