<!DOCTYPE svg PUBLIC "-//W3C//DTD SVG 20010904//EN" "http://www.w3.org/TR/2001/REC-SVG-20010904/DTD/svg10.dtd">
<svg version="1.0" xmlns="http://www.w3.org/2000/svg" width="223px" height="234px" viewBox="0 0 2230 2340" preserveAspectRatio="xMidYMid meet">
<g id="layer1" fill="#010101" stroke="none">
 <path d="M1010 2228 c-184 -60 -487 -159 -672 -219 l-338 -110 0 -729 0 -728 33 -11 c17 -5 326 -105 685 -221 359 -116 657 -210 662 -208 17 6 851 1160 848 1174 -2 7 -192 272 -422 589 -328 450 -424 575 -440 574 -12 0 -172 -50 -356 -111z m789 -527 c210 -289 380 -530 377 -536 -11 -29 -810 -1115 -820 -1115 -6 0 -306 96 -666 213 l-655 212 -3 696 -2 695 667 216 667 216 26 -37 c15 -20 199 -272 409 -560z"/>
 </g>

</svg>